<svg xmlns="http://www.w3.org/2000/svg">
  <symbol id="zoom-out-icon" viewBox="0 0 44 44"><path fill-rule="evenodd" clip-rule="evenodd" d="M14 22a1 1 0 011-1h14a1 1 0 110 2H15a1 1 0 01-1-1z" fill="currentColor" stroke="inherit" stroke-width="8" stroke-opacity=".25"/></symbol>
  <symbol id="threed-icon-button-control" viewBox="0 0 60 60" fill="none"><path d="M0 0h60v60H0z" fill="none"/><path d="M30,16.85,17.74,23.92V38.08L30,45.15l12.26-7.08V23.92ZM19.74,36.92V25.08L30,19.15,40.13,25,30,30.88v12Z" fill="currentColor"/></symbol>
  <symbol id="exit-fullscreen-icon" viewBox="0 0 44 44"><g fill="currentColor" stroke="inherit" stroke-opacity=".25" stroke-width="8"><path d="M25 20h4a1 1 0 100-2h-3v-3a1 1 0 10-2 0v4a1 1 0 001 1zM19 24h-4a1 1 0 100 2h3v3a1 1 0 102 0v-4a1 1 0 00-1-1zM29 24h-4a1 1 0 00-1 1v4a1 1 0 102 0v-3h3a1 1 0 100-2zM19 14a1 1 0 00-1 1v3h-3a1 1 0 100 2h4a1 1 0 001-1v-4a1 1 0 00-1-1z"/></g></symbol>
  <symbol id="enter-fullscreen-icon" viewBox="0 0 44 44"><path fill="currentColor" d="M19 14h-4a1 1 0 00-1 1v4a1 1 0 102 0v-3h3a1 1 0 100-2zm0 14h-3v-3a1 1 0 10-2 0v4a1 1 0 001 1h4a1 1 0 100-2zm10-4a1 1 0 00-1 1v3h-3a1 1 0 100 2h4a1 1 0 001-1v-4a1 1 0 00-1-1zm0-10h-4a1 1 0 100 2h3v3a1 1 0 102 0v-4a1 1 0 00-1-1z" stroke="inherit" stroke-opacity=".25" stroke-width="8"/></symbol>
  <symbol id="zoom-in-icon" viewBox="0 0 44 44"><path fill-rule="evenodd" clip-rule="evenodd" d="M23 15a1 1 0 10-2 0v6h-6a1 1 0 100 2h6v6a1 1 0 102 0v-6h6a1 1 0 100-2h-6v-6z" fill="currentColor" stroke="inherit" stroke-width="8" stroke-opacity=".25"/></symbol>
</svg>
